HIERARCHY
ROOT RootJoint
{
    OFFSET   0.000000   0.000000   0.000000
    CHANNELS 6 Xposition Yposition Zposition Xrotation Yrotation Zrotation
    JOINT pelvis_lowerback
    {
        OFFSET   0.000000   0.093605   0.000000
        CHANNELS 3 Xrotation Yrotation Zrotation
        JOINT lowerback_torso
        {
            OFFSET   0.000000   0.100000   0.000000
            CHANNELS 3 Xrotation Yrotation Zrotation
            JOINT torso_head
            {
                OFFSET   0.000000   0.282350   0.000000
                CHANNELS 3 Xrotation Yrotation Zrotation
                End Site
                {
                    OFFSET   0.000000   0.192650   0.000000
                }
            }
            JOINT rTorso_Clavicle
            {
                OFFSET  -0.001000   0.157500   0.000000
                CHANNELS 3 Xrotation Yrotation Zrotation
                JOINT rShoulder
                {
                    OFFSET  -0.117647   0.000000   0.000000
                    CHANNELS 3 Xrotation Yrotation Zrotation
                    JOINT rElbow
                    {
                        OFFSET  -0.245000   0.000000   0.000000
                        CHANNELS 3 Xrotation Yrotation Zrotation
                        JOINT rWrist
                        {
                            OFFSET  -0.240000   0.000000   0.000000
                            CHANNELS 3 Xrotation Yrotation Zrotation
                            End Site
                            {
                                OFFSET  -0.116353  -0.002500   0.000000
                            }
                        }
                    }
                }
            }
            JOINT lTorso_Clavicle
            {
                OFFSET   0.001000   0.157500   0.000000
                CHANNELS 3 Xrotation Yrotation Zrotation
                JOINT lShoulder
                {
                    OFFSET   0.117647   0.000000   0.000000
                    CHANNELS 3 Xrotation Yrotation Zrotation
                    JOINT lElbow
                    {
                        OFFSET   0.245000   0.000000   0.000000
                        CHANNELS 3 Xrotation Yrotation Zrotation
                        JOINT lWrist
                        {
                            OFFSET   0.240000   0.000000   0.000000
                            CHANNELS 3 Xrotation Yrotation Zrotation
                            End Site
                            {
                                OFFSET   0.116353  -0.002500   0.000000
                            }
                        }
                    }
                }
            }
        }
    }
    JOINT rHip
    {
        OFFSET  -0.100000  -0.051395   0.000000
        CHANNELS 3 Xrotation Yrotation Zrotation
        JOINT rKnee
        {
            OFFSET   0.000000  -0.410000   0.000000
            CHANNELS 3 Xrotation Yrotation Zrotation
            JOINT rAnkle
            {
                OFFSET   0.000000  -0.390000   0.000000
                CHANNELS 3 Xrotation Yrotation Zrotation
                JOINT rToeJoint
                {
                    OFFSET   0.000000  -0.050000   0.130000
                    CHANNELS 3 Xrotation Yrotation Zrotation
                    End Site
                    {
                        OFFSET  -0.010000   0.002000   0.060000
                    }
                }
            }
        }
    }
    JOINT lHip
    {
        OFFSET   0.100000  -0.051395   0.000000
        CHANNELS 3 Xrotation Yrotation Zrotation
        JOINT lKnee
        {
            OFFSET   0.000000  -0.410000   0.000000
            CHANNELS 3 Xrotation Yrotation Zrotation
            JOINT lAnkle
            {
                OFFSET   0.000000  -0.390000   0.000000
                CHANNELS 3 Xrotation Yrotation Zrotation
                JOINT lToeJoint
                {
                    OFFSET   0.000000  -0.050000   0.130000
                    CHANNELS 3 Xrotation Yrotation Zrotation
                    End Site
                    {
                        OFFSET   0.010000   0.002000   0.060000
                    }
                }
            }
        }
    }
}
MOTION
Frames: 11
Frame Time:   0.008333
 -2.413868   0.909232   4.676586  -4.938143   2.062393   0.031815   9.500325   4.399604   0.292956   2.534008   0.289362   1.043931  -2.572777   0.563461   1.483149   1.382256   3.500146  12.697284   7.178631  13.794341  37.880810   0.000412  18.821607  -0.000504  11.209542   2.385220   1.605450   2.388343   0.414660 -13.548169  13.402825  -8.218219 -43.257969  -0.002081 -13.551782   0.000243   9.576211  -2.263443  -3.923599  13.747486   2.006966   4.527497   7.344554  -0.000022  -0.000240  -9.902952   4.541622  -5.143989  -9.050034  -0.000002   0.000004 -22.004049  -5.728773   1.398242  19.596025  -0.000038   0.004034  -7.644932   3.564774  -1.409110  -0.442427   0.000082  -0.000078
 -2.413433   0.908231   4.681287  -4.852482   2.042754   0.050917   9.408838   4.446002   0.258474   2.592010   0.308844   1.054281  -2.580400   0.614343   1.485435   1.378614   3.548952  12.766689   7.150461  13.898767  37.921463   0.000389  18.864737  -0.000459  11.208219   2.386609   1.604420   2.367585   0.481869 -13.611665  13.477352  -8.176978 -43.334972  -0.002128 -13.233975   0.000343   9.579800  -2.210927  -3.911386  13.972100   1.958769   4.478024   7.418840  -0.000017  -0.000249 -10.280991   4.626876  -5.127541  -9.051388  -0.000002   0.000003 -22.121305  -5.740643   1.367453  18.191864  -0.000138   0.003720  -7.446667   3.434056  -1.456058  -0.501818  -0.000003   0.000041
 -2.412967   0.907183   4.686065  -4.762507   2.025883   0.065792   9.314042   4.486645   0.228395   2.643867   0.325674   1.063538  -2.588107   0.662773   1.486265   1.379173   3.591661  12.837785   7.126098  13.994841  37.964497   0.000365  18.903991  -0.000414  11.207034   2.384668   1.613655   2.350363   0.547032 -13.672654  13.548586  -8.136043 -43.406983  -0.002119 -12.934577   0.000403   9.583140  -2.140253  -3.895595  14.198206   1.913471   4.431504   7.492374  -0.000012  -0.000252 -10.661979   4.707076  -5.109371  -9.057193  -0.000002   0.000003 -22.231290  -5.753985   1.347243  16.869812  -0.000152   0.003389  -7.261713   3.310826  -1.499523  -0.552578  -0.000053   0.000116
 -2.412467   0.906111   4.690912  -4.667449   2.010804   0.075463   9.219302   4.523295   0.202456   2.689111   0.340226   1.073628  -2.596408   0.707947   1.486778   1.382450   3.629537  12.908551   7.104810  14.083240  38.007732   0.000341  18.939840  -0.000370  11.205860   2.380131   1.629160   2.335164   0.608984 -13.731561  13.615588  -8.097304 -43.475107  -0.002068 -12.654694   0.000427   9.586556  -2.067361  -3.880417  14.423396   1.870994   4.388682   7.564852  -0.000006  -0.000252 -11.033725   4.781799  -5.090251  -9.083182  -0.000001   0.000002 -22.336161  -5.767680   1.336651  15.635570  -0.000124   0.003054  -7.089336   3.195696  -1.539442  -0.599740  -0.000084   0.000165
 -2.411931   0.905028   4.695822  -4.565915   1.996245   0.081247   9.125288   4.556539   0.179429   2.728219   0.352813   1.084107  -2.605024   0.750086   1.487234   1.387453   3.663552  12.977764   7.085934  14.164893  38.050314   0.000317  18.972757  -0.000330  11.204718   2.373863   1.648656   2.321057   0.667254 -13.788223  13.678024  -8.061266 -43.539569  -0.001988 -12.393535   0.000423   9.589765  -1.997386  -3.866469  14.645263   1.831072   4.347657   7.636654  -0.000000  -0.000251 -11.390718   4.851402  -5.070269  -9.136687  -0.000001   0.000003 -22.435530  -5.781287   1.332998  14.485087  -0.000082   0.002741  -6.928587   3.088170  -1.576134  -0.643576  -0.000101   0.000195
 -2.411357   0.903941   4.700794  -4.456548   1.981452   0.084208   9.032248   4.586607   0.158495   2.761513   0.363552   1.094397  -2.613778   0.789399   1.487656   1.393518   3.694331  13.044514   7.069013  14.240507  38.091634   0.000293  19.003119  -0.000293  11.203611   2.366636   1.670597   2.307522   0.721683 -13.842363  13.735886  -8.028054 -43.600419  -0.001887 -12.150077   0.000395   9.592671  -1.932017  -3.853557  14.861919   1.793456   4.306950   7.707901   0.000006  -0.000248 -11.730078   4.916179  -5.049429  -9.221401  -0.000001   0.000005 -22.528931  -5.794588   1.334245  13.413266  -0.000043   0.002463  -6.778656   2.987745  -1.609894  -0.684347  -0.000109   0.000211
 -2.410744   0.902855   4.705826  -4.338165   1.966031   0.085036   8.940313   4.613628   0.139125   2.789286   0.372487   1.104104  -2.622574   0.826074   1.488033   1.400200   3.722292  13.108125   7.053732  14.310612  38.131224   0.000271  19.031210  -0.000260  11.202534   2.358922   1.693775   2.294247   0.772266 -13.893722  13.789306  -7.997632 -43.657658  -0.001774 -11.923250   0.000351   9.595246  -1.871801  -3.841306  15.071975   1.757914   4.265612   7.778499   0.000012  -0.000245 -12.050440   4.976391  -5.027720  -9.338881  -0.000001   0.000009 -22.615982  -5.807456   1.339005  12.415085  -0.000013   0.002223  -6.638798   2.893949  -1.640985  -0.722288  -0.000111   0.000217
 -2.410072   0.901824   4.711001  -4.253632   1.928763   0.098270   8.840970   4.651107   0.106465   2.868319   0.396926   1.108288  -2.622909   0.871408   1.487692   1.395478   3.742938  13.141359   7.043731  14.380999  38.231325   0.000201  19.020816  -0.000198  11.182539   2.359266   1.702531   2.261831   0.843265 -13.931652  13.761454  -7.946344 -43.729751  -0.001650 -11.689774   0.000525   9.569598  -1.811048  -3.810570  15.289064   1.721845   4.203004   7.917904   0.000028  -0.000309 -12.351196   5.051988  -5.004612  -9.548750  -0.000001   0.000007 -22.699988  -5.812082   1.331515  11.682144  -0.000020   0.002071  -6.391928   2.759710  -1.646933  -0.772606  -0.000104   0.000259
 -2.409337   0.900841   4.716304  -4.174272   1.876710   0.115997   8.738677   4.690035   0.069276   2.947147   0.423001   1.108203  -2.620419   0.914841   1.486110   1.399163   3.757131  13.178669   7.038948  14.443330  38.332980   0.000142  19.008713  -0.000148  11.163458   2.349117   1.732913   2.232879   0.914358 -13.967662  13.735661  -7.896832 -43.797647  -0.001528 -11.471932   0.000631   9.541164  -1.753376  -3.771339  15.505477   1.684594   4.130611   8.078290   0.000044  -0.000397 -12.614047   5.120717  -4.992696  -9.840255  -0.000032   0.000040 -22.760253  -5.816170   1.322150  11.037098  -0.000040   0.002005  -6.157713   2.633950  -1.652008  -0.805347  -0.000093   0.000263
 -2.408615   0.899845   4.721713  -4.092086   1.844935   0.131997   8.634839   4.716255   0.027273   3.017757   0.439779   1.109335  -2.618780   0.955087   1.484413   1.409408   3.764644  13.218278   7.038087  14.498365  38.434359   0.000095  18.996181  -0.000109  11.145013   2.334820   1.778255   2.205779   0.980940 -13.994449  13.712010  -7.849872 -43.857711  -0.001401 -11.268785   0.000688   9.513679  -1.699608  -3.730520  15.712316   1.665186   4.047126   8.252463   0.000093  -0.000427 -12.821922   5.165489  -4.749547 -10.219862   0.000670   0.000138 -22.809029  -5.821384   1.313929  10.448049  -0.000044   0.001825  -5.938496   2.516081  -1.656309  -0.834235  -0.000081   0.000254
 -2.407838   0.898878   4.727218  -3.998864   1.803548   0.145724   8.525696   4.743012  -0.010336   3.078214   0.455344   1.107355  -2.618454   0.992903   1.481506   1.422609   3.768329  13.257023   7.039782  14.546971  38.529649   0.000058  18.982963  -0.000079  11.127686   2.314864   1.827714   2.181732   1.045062 -14.022645  13.690629  -7.805215 -43.914836  -0.001283 -11.078870   0.000700   9.487200  -1.647515  -3.689616  15.919961   1.631950   3.977898   8.423224   0.000103  -0.000481 -13.046716   5.229396  -4.745040 -10.598774   0.000488   0.000115 -22.845270  -5.825143   1.309821   9.901803  -0.000059   0.001703  -5.733739   2.406460  -1.659656  -0.860253  -0.000070   0.000241
